<svg width="288" height="96" viewBox="0 0 288 96" fill="none" xmlns="http://www.w3.org/2000/svg">
<g clip-path="url(#clip0_1686_154540)">
<path d="M288 0H0V96H288V0Z" fill="#FFE8E2"/>
<path d="M101 30.5699C140.82 24.5699 173.09 41.4099 173.09 41.4099V57.0599H101V30.5699Z" fill="#AECD9E"/>
<path d="M288 41.8399V63.7299H101V45.2299C125.36 52.4199 201.79 19.6699 288 41.8399Z" fill="#9EB22C"/>
<path d="M288 59H101V96H288V59Z" fill="#FCD59D"/>
<path d="M101 51C173 51 205 55 288 55V58H101V51Z" fill="#7E8F1D"/>
<path d="M195 57.0001V52.0001L177 43.8601H169L195 57.0001Z" fill="#1F201A"/>
<path d="M187 52.0001V57.0001H151V52.0001L169 43.8601L187 52.0001Z" fill="#414334"/>
<path d="M288 92H101V93H288V92Z" fill="#F4BA64"/>
<path d="M288 88H101V89H288V88Z" fill="#F4BA64"/>
<path d="M288 84H101V85H288V84Z" fill="#F4BA64"/>
<path d="M288 80H101V81H288V80Z" fill="#F4BA64"/>
<path d="M288 76H101V77H288V76Z" fill="#F4BA64"/>
<path d="M288 72H101V73H288V72Z" fill="#F4BA64"/>
<path d="M173 52H164V57H173V52Z" fill="#1F201A"/>
<path d="M288 57H101V63H288V57Z" fill="#F4BA64"/>
<path d="M196 52H187V57H196V52Z" fill="#65684E"/>
<path d="M124 21.0001H184C163 13.0001 149 19.0001 124 19.0001V21.0001Z" fill="#FFF8F5"/>
<path d="M246 29H172C192 21 215 28 223 28C231 28 237 24 246 29Z" fill="#FFF8F5"/>
<path d="M288 12H237C255 7 265 11 270 11C275 11 288 7 288 7V12Z" fill="#FFF8F5"/>
<path d="M124 0H117V96H124V0Z" fill="#FDFBFF"/>
<path d="M120 0H0V96H120V0Z" fill="#FBF8FF"/>
<path d="M263 30C263 31.0609 262.579 32.0783 261.828 32.8284C261.078 33.5786 260.061 34 259 34C257.939 34 256.922 33.5786 256.172 32.8284C255.421 32.0783 255 31.0609 255 30H263Z" fill="#62ADF7"/>
<path d="M263 21H255V30H263V21Z" fill="#0A66C2"/>
<path d="M263 21H255L259 17L263 21Z" fill="#38434F"/>
<path d="M263 31V30H255V31L250.17 72H251.17L252.24 63H257V72H258V63H260V72H261V63H265.75L266.82 72H267.82L263 31ZM257 62H252.37L254.37 44.88H257V62ZM257 43.88H254.52L256.05 31H257V43.88ZM260 62H258V44.88H260V62ZM260 43.88H258V31H260V43.88ZM261 31H262L263.53 43.88H261V31ZM261 62V44.88H263.6L265.6 62H261Z" fill="#38434F"/>
<path d="M45 0H0V27H45V0Z" fill="white"/>
<path d="M67 27H59V36H67V27Z" fill="#56687A"/>
<path d="M80 22H70V32H80V22Z" fill="#D0DDEA"/>
<path d="M65 26H61V28H65V26Z" fill="#A46BE7"/>
<path d="M78 21H72V23H78V21Z" fill="#A46BE7"/>
<path d="M44 0V26H0V28H46V0H44Z" fill="#D8C1B2"/>
<path d="M20 8.62L11.38 0H8.79004L20 11.21V8.62Z" fill="#D0DDEA"/>
<path d="M6 18.0001H9.38L6 14.6201V18.0001Z" fill="#D0DDEA"/>
<path d="M20 12.62L7.38 0H6V1.21L20 15.21V12.62Z" fill="#D0DDEA"/>
<path d="M20 4.62L15.38 0H12.79L20 7.21V4.62Z" fill="#D0DDEA"/>
<path d="M21 3.21L24.21 0H21.62L21 0.62V3.21Z" fill="#D0DDEA"/>
<path d="M21 11.21L32.21 0H29.62L21 8.62V11.21Z" fill="#D0DDEA"/>
<path d="M21 7.21L28.21 0H25.62L21 4.62V7.21Z" fill="#D0DDEA"/>
<path d="M20 0.62L19.38 0H16.79L20 3.21V0.62Z" fill="#D0DDEA"/>
<path d="M30.2101 18.0001L35.0001 13.2101V10.6201L27.6201 18.0001H30.2101Z" fill="#D0DDEA"/>
<path d="M26.2101 18.0001L35.0001 9.21012V6.62012L23.6201 18.0001H26.2101Z" fill="#D0DDEA"/>
<path d="M21 18.0001H22.21L35 5.21012V2.62012L21 16.6201V18.0001Z" fill="#D0DDEA"/>
<path d="M6 13.2101L10.79 18.0001H13.38L6 10.6201V13.2101Z" fill="#D0DDEA"/>
<path d="M33.62 0L21 12.62V15.21L35 1.21V0H33.62Z" fill="#D0DDEA"/>
<path d="M35.0001 18.0001V14.6201L31.6201 18.0001H35.0001Z" fill="#D0DDEA"/>
<path d="M6 9.21012L14.79 18.0001H17.38L6 6.62012V9.21012Z" fill="#D0DDEA"/>
<path d="M6 2.62012V5.21012L18.79 18.0001H20V16.6201L6 2.62012Z" fill="#D0DDEA"/>
<path d="M96 0H74V15H96V0Z" fill="#F3E9FF"/>
<path d="M97 0H75V14H97V0Z" fill="white"/>
<path d="M78 12C78.5523 12 79 11.5523 79 11C79 10.4477 78.5523 10 78 10C77.4477 10 77 10.4477 77 11C77 11.5523 77.4477 12 78 12Z" fill="#FFE8E2"/>
<path d="M82 12C82.5523 12 83 11.5523 83 11C83 10.4477 82.5523 10 82 10C81.4477 10 81 10.4477 81 11C81 11.5523 81.4477 12 82 12Z" fill="#FFE8E2"/>
<path d="M86 12C86.5523 12 87 11.5523 87 11C87 10.4477 86.5523 10 86 10C85.4477 10 85 10.4477 85 11C85 11.5523 85.4477 12 86 12Z" fill="#FFE8E2"/>
<path d="M90 12C90.5523 12 91 11.5523 91 11C91 10.4477 90.5523 10 90 10C89.4477 10 89 10.4477 89 11C89 11.5523 89.4477 12 90 12Z" fill="#FFE8E2"/>
<path d="M94 12C94.5523 12 95 11.5523 95 11C95 10.4477 94.5523 10 94 10C93.4477 10 93 10.4477 93 11C93 11.5523 93.4477 12 94 12Z" fill="#FFE8E2"/>
<path d="M78 8C78.5523 8 79 7.55228 79 7C79 6.44772 78.5523 6 78 6C77.4477 6 77 6.44772 77 7C77 7.55228 77.4477 8 78 8Z" fill="#FFE8E2"/>
<path d="M82 8C82.5523 8 83 7.55228 83 7C83 6.44772 82.5523 6 82 6C81.4477 6 81 6.44772 81 7C81 7.55228 81.4477 8 82 8Z" fill="#FFE8E2"/>
<path d="M86 8C86.5523 8 87 7.55228 87 7C87 6.44772 86.5523 6 86 6C85.4477 6 85 6.44772 85 7C85 7.55228 85.4477 8 86 8Z" fill="#FFE8E2"/>
<path d="M90 8C90.5523 8 91 7.55228 91 7C91 6.44772 90.5523 6 90 6C89.4477 6 89 6.44772 89 7C89 7.55228 89.4477 8 90 8Z" fill="#FFE8E2"/>
<path d="M94 8C94.5523 8 95 7.55228 95 7C95 6.44772 94.5523 6 94 6C93.4477 6 93 6.44772 93 7C93 7.55228 93.4477 8 94 8Z" fill="#FFE8E2"/>
<path d="M78 4C78.5523 4 79 3.55228 79 3C79 2.44772 78.5523 2 78 2C77.4477 2 77 2.44772 77 3C77 3.55228 77.4477 4 78 4Z" fill="#FFE8E2"/>
<path d="M82 4C82.5523 4 83 3.55228 83 3C83 2.44772 82.5523 2 82 2C81.4477 2 81 2.44772 81 3C81 3.55228 81.4477 4 82 4Z" fill="#FFE8E2"/>
<path d="M86 4C86.5523 4 87 3.55228 87 3C87 2.44772 86.5523 2 86 2C85.4477 2 85 2.44772 85 3C85 3.55228 85.4477 4 86 4Z" fill="#FFE8E2"/>
<path d="M90 4C90.5523 4 91 3.55228 91 3C91 2.44772 90.5523 2 90 2C89.4477 2 89 2.44772 89 3C89 3.55228 89.4477 4 90 4Z" fill="#FFE8E2"/>
<path d="M94 4C94.5523 4 95 3.55228 95 3C95 2.44772 94.5523 2 94 2C93.4477 2 93 2.44772 93 3C93 3.55228 93.4477 4 94 4Z" fill="#FFE8E2"/>
<path d="M78 25H72V26H78V25Z" fill="#B4C6D9"/>
<path d="M78 27H72V28H78V27Z" fill="#B4C6D9"/>
<path d="M65 30H61V31H65V30Z" fill="#95ABC1"/>
<path d="M65 32H61V33H65V32Z" fill="#95ABC1"/>
<path d="M74 84.9999C74 82.9999 78 81.9999 81 81.9999C84 81.9999 87.57 81.8999 87.57 84.9999H74Z" fill="#937FAC"/>
<path d="M85.06 79.75L81.28 79.25C81.28 79.72 82.36 79.72 83.73 80.12L81.57 80.72C81.4695 80.7573 81.386 80.8301 81.3354 80.9246C81.2847 81.0191 81.2703 81.1289 81.2948 81.2333C81.3194 81.3377 81.3812 81.4295 81.4687 81.4915C81.5563 81.5535 81.6634 81.5814 81.77 81.57L85.67 80.82L85.06 79.75Z" fill="#F0C59F"/>
<path d="M86.1101 83C86.2196 82.9862 86.3239 82.9452 86.4134 82.8807C86.5029 82.8162 86.5748 82.7303 86.6226 82.6308C86.6703 82.5313 86.6924 82.4215 86.6867 82.3113C86.681 82.2011 86.6478 82.094 86.5901 82C85.8942 81.1638 85.0271 80.4866 84.0473 80.0139C83.0675 79.5413 81.9977 79.2842 80.9101 79.26C80.3601 79.26 80.1001 78.35 81.2201 78.26C81.2138 78.1752 81.2261 78.0901 81.2563 78.0106C81.2866 77.9311 81.3339 77.8593 81.3949 77.8001C81.456 77.741 81.5293 77.696 81.6097 77.6683C81.6901 77.6406 81.7756 77.631 81.8601 77.64C85.2183 77.6711 88.5025 78.6297 91.3501 80.41C92.2601 81.02 94.9901 80.48 94.9901 80.48L96.6101 84.62L86.1101 83Z" fill="#F5CEA9"/>
<path d="M114.63 67.3899L111 85.9999H95V80.3999L100 79.7499L108.13 58.1199C108.541 57.0328 109.28 56.0999 110.243 55.4498C111.207 54.7997 112.348 54.4643 113.51 54.4899L114.63 67.3899Z" fill="#CCC3B5"/>
<path d="M146 86V65C146 56 139 54 126 54V85.31L146 86Z" fill="#394632"/>
<path d="M110.28 49.0001C110.199 49.0002 110.119 48.9802 110.047 48.9418C109.976 48.9034 109.915 48.8478 109.87 48.7801C109.833 48.7251 109.807 48.6632 109.793 48.5981C109.78 48.533 109.78 48.4658 109.793 48.4007C109.806 48.3355 109.832 48.2736 109.869 48.2185C109.907 48.1635 109.954 48.1164 110.01 48.0801L115.24 44.6201C115.35 44.5458 115.485 44.5183 115.616 44.5436C115.746 44.5689 115.861 44.645 115.935 44.7551C116.009 44.8651 116.037 45.0002 116.012 45.1305C115.986 45.2608 115.91 45.3758 115.8 45.4501L110.56 48.92C110.477 48.9751 110.379 49.003 110.28 49.0001V49.0001Z" fill="#56687A"/>
<path d="M108.39 50.73C108.176 50.7283 107.969 50.6583 107.798 50.5301C107.627 50.402 107.502 50.2224 107.44 50.0178C107.379 49.8132 107.384 49.5943 107.456 49.3931C107.528 49.1919 107.663 49.0191 107.84 48.9L109.73 47.65C109.84 47.5751 109.963 47.5229 110.093 47.4962C110.223 47.4696 110.357 47.469 110.487 47.4947C110.617 47.5204 110.741 47.5717 110.851 47.6457C110.962 47.7197 111.056 47.8149 111.129 47.9258C111.202 48.0366 111.252 48.1608 111.277 48.2913C111.301 48.4217 111.299 48.5557 111.272 48.6855C111.244 48.8153 111.19 48.9382 111.115 49.0471C111.039 49.1561 110.942 49.2488 110.83 49.32L109 50.57C108.819 50.6877 108.605 50.7438 108.39 50.73Z" fill="#1C2024"/>
<path d="M113.32 36.0899C112.768 37.1492 112.48 38.3257 112.48 39.5199C112.561 41.0893 112.395 42.6616 111.99 44.1799C111.84 44.6199 112.19 44.8399 112.37 44.9699C112.53 45.0499 112.671 45.1623 112.785 45.3001C112.898 45.4379 112.982 45.5979 113.03 45.7699C113.12 46.2599 113.57 48.6399 113.57 48.6399C113.579 48.8358 113.629 49.0275 113.717 49.2031C113.804 49.3787 113.926 49.5344 114.077 49.6603C114.227 49.7861 114.402 49.8795 114.59 49.9345C114.778 49.9896 114.976 50.005 115.17 49.9799V49.9799C115.535 49.9357 115.905 50.0037 116.23 50.1747C116.555 50.3458 116.821 50.6119 116.991 50.9375C117.162 51.2632 117.229 51.6331 117.184 51.998C117.139 52.3628 116.984 52.7053 116.74 52.9799C115.848 53.8134 114.713 54.3391 113.5 54.4799C114.32 61.2299 125 62.7199 127 53.9999C123.72 50.4299 125 46.4899 126.26 43.6499C128 39.9999 117.64 29.1799 113.32 36.0899Z" fill="#F5CEA9"/>
<path d="M120 31.6301C124.18 31.5001 127.23 34.9201 127.68 36.8601C128.255 39.5411 129.269 42.109 130.68 44.4601C132.79 48.2301 131.19 52.6201 127.54 52.6201C123.89 52.6201 120.62 49.1101 126.25 43.2801L121.19 40.8301C120.479 40.3673 119.943 39.6792 119.669 38.876C119.396 38.0728 119.399 37.2009 119.68 36.4001C117.17 39.5501 113.91 39.9801 112.42 38.8401C112.6 34.4001 115.58 31.7601 120 31.6301Z" fill="#5D3B09"/>
<path d="M125.92 40.2801C126.048 37.6613 125.243 35.0821 123.65 33.0001C123.093 32.3617 122.404 31.8521 121.63 31.5068C120.857 31.1614 120.017 30.9885 119.17 31.0001C119.037 31.0001 118.91 31.0527 118.816 31.1465C118.723 31.2403 118.67 31.3674 118.67 31.5001C118.67 31.6327 118.723 31.7598 118.816 31.8536C118.91 31.9474 119.037 32.0001 119.17 32.0001C119.878 31.9946 120.579 32.1439 121.223 32.4376C121.867 32.7312 122.44 33.1621 122.9 33.7001C124.314 35.5773 125.023 37.8928 124.9 40.2401C124.372 40.3839 123.903 40.692 123.561 41.1198C123.22 41.5477 123.023 42.0731 123 42.6201C122.927 42.9416 122.924 43.2751 122.99 43.5981C123.057 43.921 123.192 44.226 123.386 44.4924C123.58 44.7589 123.829 44.9806 124.117 45.1428C124.404 45.305 124.722 45.4038 125.051 45.4326C125.379 45.4614 125.71 45.4196 126.021 45.3099C126.332 45.2002 126.616 45.0251 126.854 44.7966C127.091 44.568 127.277 44.2912 127.399 43.9848C127.521 43.6784 127.576 43.3494 127.56 43.0201C127.639 42.4449 127.52 41.8598 127.222 41.3616C126.924 40.8633 126.464 40.4818 125.92 40.2801Z" fill="#1C2024"/>
<path d="M113.51 54.49C117.08 58.77 124.67 56.78 127 54C128.33 54.55 129.74 55 131.11 55.55L138.39 63.38C137.73 69.44 135 85 135 85H106C108.71 78.48 108.89 77.61 107.69 73.34C106.69 69.59 106.69 67.27 108.57 64.24C110.45 61.21 113.06 58 113.51 54.49Z" fill="white"/>
<path d="M109 85.0001C110 85.0001 111.09 84.0001 112 84.0001C112.91 84.0001 116 84.0001 116 84.0001L115 80.0001L113.55 80.3001C112.294 80.408 111.034 80.14 109.93 79.5301L107.48 78.5301C107.089 78.3503 106.651 78.297 106.228 78.3777C105.805 78.4584 105.418 78.6689 105.12 78.9801L101.12 83.1501L109 85.0001Z" fill="#F5CEA9"/>
<path d="M131 85C136 85 137.73 69.4401 138.39 63.3801C138.88 58.8301 135.21 57.12 131.11 55.55C124.45 69.55 126.27 77.9801 126.27 77.9801L115 80V85H131Z" fill="#CCC3B5"/>
<path d="M109 83H81V85H109V83Z" fill="#493D57"/>
<path d="M35 63C35 67 30.75 68.11 27.62 68.43C27.62 68.43 27.69 68.37 27.72 68.33C28.2428 67.6196 28.5758 66.7877 28.6878 65.9129C28.7998 65.0381 28.687 64.1491 28.36 63.33V63.33C27.43 59.65 31 56.4 32.6 56L32.27 55.57C31.0432 55.9414 29.93 56.6164 29.0333 57.5323C28.1366 58.4482 27.4854 59.5756 27.14 60.81C26.3645 59.6155 25.4986 58.4822 24.55 57.42C23.7963 56.6028 23.2481 55.6178 22.9507 54.5466C22.6534 53.4754 22.6154 52.3488 22.84 51.26C23.26 50.33 24.21 50.13 25.32 49.91C26.62 49.65 28.08 49.36 28.65 47.71L27.7 47.39C27.33 48.49 26.31 48.69 25.13 48.93C24.5664 49.0246 24.0137 49.1753 23.48 49.38C23.8471 48.6116 24.3145 47.8953 24.87 47.25L24 46.49C21.25 50.26 21 53.26 21.68 55.67C19.9517 55.8523 18.2163 55.3971 16.8 54.39L16.57 54.24C16.3792 54.0972 16.2271 53.9089 16.1276 53.6924C16.028 53.4758 15.9842 53.2378 16 53C16 52.21 16 51 16 51H15V53.15C14.5751 52.8571 14.2311 52.4615 14 52C13.8536 51.6569 13.6866 51.323 13.5 51C13.5 51.33 12.91 51.66 13 52C13.4744 53.0473 14.2555 53.9261 15.24 54.52C15.374 54.6431 15.5217 54.7504 15.68 54.84L16.24 55.22C17.6108 56.1587 19.2198 56.6893 20.88 56.75C21.2583 56.7491 21.6349 56.6987 22 56.6C22.6301 58.0234 23.4693 59.3447 24.49 60.52C26.71 63.3 26.54 65.22 26.09 65.93C25.64 66.64 24.95 67.66 21.92 66.76C20.7 66.4 19.35 65.92 18.07 65.56C13.94 64.05 10.91 58.31 10.79 57.36L9.79004 57.48C10.8471 60.4586 12.7137 63.0835 15.18 65.06C14.5907 65.0283 14.0125 65.2294 13.57 65.62C12.13 67.06 11 69 17.25 75.21H24C19 72 15.67 68.7 16.46 68C17.05 67.45 21.4 70 24.77 69.82C31.11 69.78 36 68.24 36 63H35Z" fill="#65684E"/>
<path d="M32 83H14V85H32V83Z" fill="#FFD1C4"/>
<path d="M91 76H94V45H91V76Z" fill="#E2D7EE"/>
<path d="M92 45H47V76H92V45Z" fill="#CDBEE0"/>
<path d="M81 54H79V69H81V54Z" fill="#BDAED3"/>
<path d="M80 54H56V69H80V54Z" fill="#B4A0CB"/>
<path d="M71 64H65V84H71V64Z" fill="#937FAC"/>
<path d="M78 84H61V85H78V84Z" fill="#493D57"/>
<path d="M90 72H89V74H90V72Z" fill="#937FAC"/>
<path d="M88 72H87V74H88V72Z" fill="#937FAC"/>
<path d="M86 72H85V74H86V72Z" fill="#937FAC"/>
<path d="M84 72H83V74H84V72Z" fill="#937FAC"/>
<path d="M49.5 74C49.7761 74 50 73.7761 50 73.5C50 73.2239 49.7761 73 49.5 73C49.2239 73 49 73.2239 49 73.5C49 73.7761 49.2239 74 49.5 74Z" fill="#715E86"/>
<path d="M14.9999 59H6.99993C5.46993 59 5.90993 55 10.9999 55C16.0899 55 16.5299 59 14.9999 59Z" fill="#858A67"/>
<path d="M22 65H10C8.00003 65 9.00003 59 16 59C23 59 24 65 22 65Z" fill="#858A67"/>
<path d="M39 63H33C31 63 32 60 36 60C40 60 41 63 39 63Z" fill="#858A67"/>
<path d="M31.8799 48.0001H16.1199C13.4899 48.0001 15.2399 41.8701 23.9999 41.8701C32.7599 41.8701 34.5099 48.0001 31.8799 48.0001Z" fill="#858A67"/>
<path d="M38.0001 56H28.0001C26.0001 56 27.2901 52 33.0001 52C38.7101 52 40.0001 56 38.0001 56Z" fill="#858A67"/>
<path d="M17.9999 52H9.99993C7.99993 52 8.99993 49 13.9999 49C18.9999 49 19.9999 52 17.9999 52Z" fill="#858A67"/>
<path d="M32.0001 84C32.0001 84 37.1601 81 34.1601 75H12.0001C9.00008 81 14.0001 84 14.0001 84H32.0001Z" fill="#FDB29D"/>
<path d="M212 0H210V96H212V0Z" fill="#B4C6D9"/>
<path d="M211 0H202V96H211V0Z" fill="#D0DDEA"/>
<path d="M203 0H195V96H203V0Z" fill="#FBF8FF"/>
<path d="M207 58H208V74H207C206.735 74 206.48 73.8946 206.293 73.7071C206.105 73.5196 206 73.2652 206 73V59C206 58.7348 206.105 58.4804 206.293 58.2929C206.48 58.1054 206.735 58 207 58Z" fill="#56687A"/>
<path d="M199 74H198V58H199C199.265 58 199.52 58.1054 199.707 58.2929C199.895 58.4804 200 58.7348 200 59V73C200 73.2652 199.895 73.5196 199.707 73.7071C199.52 73.8946 199.265 74 199 74Z" fill="#7389A0"/>
<path d="M159 87H0V96H159V87Z" fill="#915907"/>
<path d="M159 85H0V88H159V85Z" fill="#AC8245"/>
<path d="M43 96H42C42 89.86 47.13 84.62 51.65 80C55.43 76.13 59 72.48 59 69H60C60 72.89 56.29 76.68 52.37 80.69C47.76 85.4 43 90.27 43 96Z" fill="#493D57"/>
</g>
<defs>
<clipPath id="clip0_1686_154540">
<rect width="288" height="96" fill="white"/>
</clipPath>
</defs>
</svg>
