<svg xmlns="http://www.w3.org/2000/svg" width="256" height="256" viewBox="0 0 256 256" id="main-presentation-large" data-supported-dps="256x256">
  <path d="M65.2 164h40.4l9-27a1.33 1.33 0 00-1.4-1.8H75.6z" fill="#38434f" fill-rule="evenodd"/>
  <path d="M253.4 192C148.4 189.2 64 104.4 64 0h192v192z" fill="#eef3f8"/>
  <path d="M43.2 97.4c-1.4-17.6-27-17-27.6.8 0 1.6 5 12.8 5.2 13.8.6 2.4 1.2 6-.8 8l-2.6 2.4 16 2.8 4.4-4.6s-2 .2-2-.6c0-2.4.2-6.2 2.4-7 4.6-1.6 4.8-1.8 4.6-6.2-.2-2.6 1.8-2.2 1.8-3.6.4-1.4-1-2.8-1.4-5.8" fill="#e7ad82"/>
  <path d="M105 162H67.2l8.6-25a1.27 1.27 0 011.2-1h35.2a1.28 1.28 0 011.2 1.6zm8.2-28H77a3 3 0 00-3 2.2L63 168h42.2l10.6-30.2c.4-1.8-.8-3.8-2.6-3.8z" fill="#5b696b"/>
  <path fill="#958b7b" fill-rule="evenodd" d="M114 168H58v6h56v-6z"/>
  <path fill="#bc8264" fill-rule="evenodd" d="M104.29 227.92L75 194H45.2L91 241.4l13.29-13.48z"/>
  <path d="M52 174h30a54.36 54.36 0 018 4c6 4 2 12 1 14.6L72 234H54l10-40H22s-6 0-10-4c-2.6-2.6-4-16-4-16z" fill="#c88c69" fill-rule="evenodd"/>
  <path d="M120.43 228.05c-.58.3-1 .74-1.61 1-3.82 2.69-7.8 2.71-12.27 2.38-.88 0-4.24-1.42-5.66 0L92.41 240l11.31 11.31 22.63-22.62s-2.83-2.88-5.92-.64z" fill="#3a4535"/>
  <path d="M103.72 251.26l1.27 1.28a2.22 2.22 0 003.11 0l18.11-18.1a4.34 4.34 0 00.14-5.8z" fill="#bdd7b0"/>
  <path d="M121.4 236.42l-16.27 16.26-1.41-1.42L120 235a1 1 0 011.42 0 1 1 0 01-.02 1.42z" fill="#7b9370"/>
  <g fill="#e1edf6">
    <path d="M105.49 236.06a.5.5 0 01-.51.12.49.49 0 01-.32-.63l1.41-4.24a.51.51 0 01.64-.32.5.5 0 01.31.63l-1.41 4.25a.62.62 0 01-.12.19zM108.65 236.22a.52.52 0 01-.48.13.51.51 0 01-.36-.61l1.08-4.39a.5.5 0 111 .24l-1.11 4.41a.56.56 0 01-.13.22zM111.74 235.82a.48.48 0 01-.45.13.49.49 0 01-.39-.59l.82-4a.49.49 0 01.59-.38.5.5 0 01.39.59l-.82 4a.52.52 0 01-.14.25zM115.39 234.65a.5.5 0 01-.33.14.49.49 0 01-.52-.47l-.16-3.25a.5.5 0 011 0l.15 3.25a.51.51 0 01-.14.33z"/>
  </g>
  <path d="M74 168l-3-6.8 8.8 1.2s1.4-.2 2.2-.4c2-.4 6-1 8.4-1.4a5.77 5.77 0 013.6.6 82.65 82.65 0 018.83 5.42.78.78 0 01-.5 1.38z" fill="#e7ad82" fill-rule="evenodd"/>
  <path d="M82 168v-8s-10 0-16-4-8.4-14.8-11.2-22.8C49.8 119.2 36 120 36 120s-2.2 3-10.2 2.4A10.1 10.1 0 0120 120s-6.4 2.4-8 4a22.86 22.86 0 00-8 18v20s-1 12 0 16a21.64 21.64 0 008 12h20c9.2 0 10-2 17.8-8.4 5.4-4.6 6.8-6.6 6.8-6.6a49.93 49.93 0 00-.7-7.05l.1.05z" fill="#7c8f81" fill-rule="evenodd"/>
  <path d="M6 194v8h51.4c4.2 0 8-3 8.4-7v-1z" fill="#474139"/>
  <path d="M52 202H6v-24h46zm-6.2-48H12.2A12.12 12.12 0 000 166.2V256h6v-41.6a6.15 6.15 0 016.2-6.4h33.4a6.32 6.32 0 016.4 6.4V256h6v-89.8c0-6.6-6.4-12-13-12l.8-.2z" fill="#bfd3d6"/>
  <g>
    <path d="M86.24 245.4c-.63-.2-1.26-.2-1.89-.4-4.6-.8-7.42-3.6-10.35-7-.64-.6-2-4-4-4H58v16h32s0-4-3.76-4.6z" fill="#3a4535"/>
    <path d="M58 250v1.8a2.22 2.22 0 002.2 2.2h25.6a4.33 4.33 0 004.2-4z" fill="#bdd7b0"/>
    <path d="M81 252H58v-2h23a.94.94 0 011 1 .94.94 0 01-1 1z" fill="#7b9370"/>
    <g fill="#e1edf6">
      <path d="M70 240.5a.5.5 0 01-.22-.95l4-2a.5.5 0 11.44.9l-4 2a.54.54 0 01-.22.05zM72.12 242.84a.5.5 0 01-.25-.92l3.87-2.35a.5.5 0 01.52.86l-3.88 2.34a.48.48 0 01-.26.07zM74.59 244.75a.49.49 0 01-.41-.22.5.5 0 01.14-.7l3.4-2.25a.5.5 0 01.56.84l-3.41 2.25a.57.57 0 01-.28.08zM78 246.5a.5.5 0 01-.37-.84l2.19-2.4a.49.49 0 01.7 0 .51.51 0 010 .71l-2.19 2.41a.49.49 0 01-.33.12z"/>
    </g>
  </g>
  <path d="M41.8 85.6c-1-1.8-1.2 0-4-3-3-3.2-6-.6-9.6-1.2-5-.8-5.6 2.8-9.4 4.4-8.4 3.4-5.2 17.6 2.2 26.2 9.8.6 10.8-4.4 11.6-5.6.2-.2.2-.8-.2-.8-3.4-2-2-7.6 2-7.4 2.2.4 4 .4 3.8-3.8 0-1.4 2.6-3.4 2.6-3.4s3-1.8 1-5.4z" fill="#673626" fill-rule="evenodd"/>
  <g>
    <path d="M60 0h152a8 8 0 018 8v96H52V8a8 8 0 018-8z" fill="#c0d1e2"/>
    <rect x="54" y="2" width="164" height="100" rx="6" fill="#fff"/>
    <path fill="#dce6f1" d="M148 54h16v32h-16z"/>
    <path fill="#c0d1e2" d="M128 66h16v20h-16z"/>
    <path fill="#9db3c8" d="M108 76h16v10h-16zM124 40h90v4h-90z"/>
    <path fill="#fce2ba" d="M124 26h90v10h-90z"/>
    <path fill="#dce6f1" d="M124 12h90v12h-90z"/>
    <path fill="#fff" d="M188 12h2v24h-2zM166 12h2v24h-2zM144 12h2v24h-2z"/>
    <path d="M220 102v3.6c0 4.6-3 8.4-6.8 8.4H58.8c-3.6 0-6.8-3.8-6.8-8.4V102z" fill="#c0d1e2"/>
    <g>
      <path d="M66 40a24.07 24.07 0 0024 24V40zM90 16a24.07 24.07 0 00-24 24h24z" fill="#eef3f8"/>
      <path d="M90 16v24h24a24.07 24.07 0 00-24-24z" fill="#9db3c8"/>
      <path d="M90 64a24.07 24.07 0 0024-24H90z" fill="#fce2ba"/>
    </g>
  </g>
  <g>
    <path d="M195.4 97.2l-1.8-.6c-4.6-1.4-4.2-3.8-6.2-5.6l-4.8-4.8a.61.61 0 00-.8 0c-1.2 1.4 2.8 4.4 2.6 4.4 0 0-5.6-2.2-7.6-3-2.2-.8-3 .6-3 .6-1.4-.4-1.6 1.2-1 1.8-.6 1 1.8 3.8 1.8 3.8l3.2 3c1.8 2.2 8.6 3.2 11.2 4 2.4 1.2 22.8 12.4 25.6 14l2-11.6z" fill="#945646"/>
    <g fill-rule="evenodd">
      <path d="M210 240c4-8 0-18 0-18h-11.8a24.92 24.92 0 01-.4 4c-.8 4.8-6.6 7.4-11.6 8.4-1.4.2-3 .6-4.2.8a4.9 4.9 0 00-4 4.8z" fill="#212b33"/>
      <g fill="#788fa5">
        <path d="M188.4 233.4c-.2-.6 1-.8 1-.2.2.6.6 1.8.8 2.6 0 .2 0 .4-.4.6-.2.2-.6 0-.8-.2a14 14 0 00-.6-2.8zM191.8 232c-.4-.6.6-1 1-.6.4.6 1 1.6 1.4 2.2.2.2 0 .4-.2.6a.61.61 0 01-.8 0 21.08 21.08 0 00-1.4-2.2zM194.6 229.8c-.4-.4.4-1.2.8-.8a18 18 0 002 1.8.38.38 0 010 .6c-.2.2-.6.4-.8.2-.4-.4-1.4-1.2-2-1.8zM196.8 227.2c-.6-.2 0-1.2.6-1a13.44 13.44 0 002.4 1.2.73.73 0 01.2.6 1 1 0 01-.8.4 26.7 26.7 0 01-2.4-1.2z"/>
      </g>
      <path d="M210 240v2a2.15 2.15 0 01-2 2h-26a4 4 0 01-4-4h32z" fill="#1d2226"/>
      <path d="M205 240h-20a.94.94 0 00-1 1 .94.94 0 001 1h20a.94.94 0 001-1 .94.94 0 00-1-1z" fill="#788fa5"/>
    </g>
    <g fill-rule="evenodd">
      <path d="M230 242c.8-8-2-18-2-18h-12a11.17 11.17 0 010 4c-.8 4.8-4.8 7.4-9.8 8.4-1.4.2-3 .6-4.2.8a4.9 4.9 0 00-4 4.8z" fill="#38434f"/>
      <g fill="#788fa5">
        <path d="M207.6 235.6c-.2-.6 1-.8 1-.2.2.6.6 1.8.8 2.6 0 .2 0 .4-.4.6-.2.2-.6 0-.8-.2a9.76 9.76 0 00-.6-2.8zM211 234.2c-.4-.6.6-1 1-.6.4.6 1 1.6 1.4 2.2.2.2 0 .4-.2.6a.61.61 0 01-.8 0 21.08 21.08 0 01-1.4-2.2zM213.8 232c-.4-.4.4-1.2.8-.8a18 18 0 002 1.8.38.38 0 010 .6c-.2.2-.6.4-.8.2-.4-.4-1.4-1.2-2-1.8zM215.4 229c-.6-.2 0-1.2.6-1a13.44 13.44 0 002.4 1.2.73.73 0 01.2.6 1 1 0 01-.8.4c-.6-.2-1.8-1-2.4-1.2z"/>
      </g>
      <path d="M225 232a3 3 0 103 3 3.08 3.08 0 00-3-3z" fill="#c0d1e2"/>
      <path d="M230 242v2a2.15 2.15 0 01-2 2h-26a4 4 0 01-4-4h32z" fill="#212b33"/>
      <path d="M227 242h-20a.94.94 0 00-1 1 .94.94 0 001 1h20a.94.94 0 001-1 .94.94 0 00-1-1z" fill="#c0d1e2"/>
    </g>
    <path d="M190 112v-8l-7.2-1.2c-5.6-2.8-7.6-1.4-9.2-1.6-1-.2-2.8-.6-4-.8-1.4-.4-2 2-.6 2.4l3.4 1c1.8.8.4 2.2-.8 2.8-1.8 1-3.8 1.4-7.6 1.2 0 0-1.6-.2-2 .6-2-.6-2.6 1.4-.6 2a1.14 1.14 0 00.8 1.4 38.72 38.72 0 0019.4-1.2 3.41 3.41 0 012.8 0z" fill="#945646"/>
    <path d="M200 134c-8 42-8 56-8 56v34h24l10-90z" fill="#c65b42"/>
    <path d="M200 134v48c2 20 5 32 11 44h17.6l-3.8-36.4a38.12 38.12 0 011.6-15L230 160c4-10 6-18 4-26z" fill="#e16745"/>
    <path d="M227.2 58c2.4-5.4 4.8-18-11.2-20-6.8-.8-12.6 4.4-13.4 11 0 3.2-1.8 5.2-1.8 6.4 0 1.4 2 1 1.8 3.6-.2 4.4.2 4.4 4.6 6s1.8 10.2 1.8 10.2h17.2l.2-.2c-6.6-7.8-3.8-10 .8-17z" fill="#945646"/>
    <path d="M224.4 72.2l-14.6-1c-2 10.64-9.59 15.7-11.68 24.15l-6.72.05-.2 10.8h7.24L200 114v20h34c2.8-19.6 8-66-9.6-61.8z" fill="#bba9d1"/>
    <path d="M211.8 86.6l-5.4 17.4-22.2-1.6-.6 12.6 28 3.4a10 10 0 0010.8-7.2L236 76l-8.6-1.6-3.6.6a12.71 12.71 0 00-8.6 5.6 28.15 28.15 0 00-3.4 6z" fill="#d7cae7"/>
  </g>
  <path d="M238.6 65.4c-.4-1.2-1-2.2-1.4-3.4-1.2-3.2-.2-5.6.8-8.6.8-2.6.2-5.6-.8-8.2-3.2-8.6-10.8-6-15.2-7.4s-5.2-4.6-7-6.6-5-1.4-6.8.2-5 1.6-6.6 1.6c-1.6-.2-4-.4-6.4 3.4-2.2 3.8 1 8.6 5 8.8a4.21 4.21 0 013 1c.8 1.4 2.2 2.8 4 1.8 1.4-.8 2-2.6 3.6-2.8a2.46 2.46 0 012 1 2.17 2.17 0 010 2.2c-.4.8-1 1.6-.6 2.2.2.6 1.2.6 1.6.2 2.6-2.8 7 1 4.6 4-2.2 2.8-1.4 6 1.2 7.2 1.6.8 2 2.4 2 4-.2 15 19.6 14 17-.6z" fill="#1d2124"/>
  <path d="M234.4 74.8a4.73 4.73 0 00-2.8 3.6c-.2 1.2.2 2.4-.2 3.6a14.92 14.92 0 01-1.8 3 5.1 5.1 0 000 4.8c.6 1 1.6 1.8 2 3 .6 2-.6 4.2-.2 6.2a4.1 4.1 0 003 3.2c1.6.4 3.4-.4 5 0 1 .2 2 1 3 1.2 5.4 1.6 9-4.8 7.2-9.6-1.2-2.6-.2-4.6 1-6.8a9.54 9.54 0 00.6-6.2 6.6 6.6 0 00-4.2-4.4c-2.2-.6-4.6.2-6.8-.4-1.8-.4-3.4-2.2-5.8-1.2z" fill="#1d2124"/>
</svg>
