<svg xmlns="http://www.w3.org/2000/svg" width="256" height="256" viewBox="0 0 256 256" id="empty-waiting-large" data-supported-dps="256x256">
  <path d="M253.41 0v.07C148.33 2.78 64 87.67 64 192h192V0z" fill="#dbe7e9"/>
  <path fill="#fff" d="M238 74h-50V8h50z"/>
  <path d="M230 64V38.07h-4.79a8 8 0 00-7.24 4.5L213 52.91A7.8 7.8 0 00220.27 64z" fill="#aeb48a"/>
  <path d="M221.94 34.26l-10.83 22.37a13.31 13.31 0 01-12 7.37H196V44.68a6.94 6.94 0 017.06-6.8h9.11v-5.71a5 5 0 015.13-4.93 4.94 4.94 0 014.64 7.02z" fill="#e4e8cc"/>
  <path fill="#f5987e" d="M212 38h-16V16h16z"/>
  <rect x="214" y="16" width="16" height="10" rx="4.78" transform="rotate(-180 222 21)" fill="#aeb48a"/>
  <path d="M196 33.05A5.54 5.54 0 00196 22z" fill="#e4e8cc"/>
  <path fill="#fad296" d="M196 106h22v32h-22z"/>
  <path d="M233 122.43c2-30.58 12.95-43.2 16.95-40.7 1.14.74 1.22 2.43.76 3.71-1.39 4.59-7.89 5.68-9.28 10.14-.28 1.49.39 3.08-.08 4.51-.57 1.78-2.7 2.73-3.21 4.53s.62 3.49.11 5.14c-.56 1.86-3.95 4.07-4.46 6.14l-.79 6.53z" style="isolation:isolate" fill="#7b9370"/>
  <path d="M234.24 119.55c1.61-9.9 11.86-14.65 13-13.33a1.42 1.42 0 01-.09 2c-1.05 1.07-3.05.82-3.92 2.13-.53.82-.34 2-1 2.73-.41.47-1.06.66-1.47 1.12-.76 1.32-1.07 2.32-2.78 2.71-1.45.37-3.56.85-3.73 2.63zM231.67 120.26c-2.19-19.86-10.12-25.78-10.12-25.78a2.11 2.11 0 00-3.36 2.46c1 2.44 3.83 3.52 5 5.79a5.55 5.55 0 01.56 4 1.89 1.89 0 00.74 1.89 10.15 10.15 0 011.72 1.61c.68 1.08.39 2.54 1 3.65s1.6 1.46 2.44 2.17a6.13 6.13 0 012 4.24z" style="isolation:isolate" fill="#7b9370"/>
  <path d="M230.93 119.33c-2.69-4.6-8.08-6.19-8.08-6.19-.4 0-.76-.23-1.15-.15a1.13 1.13 0 00-.47 2.07c.83.79 2.34-.22 2.89.71-.3 2.46 2.41 1.29 3.92 1.63a4.77 4.77 0 012.89 1.93z" style="isolation:isolate" fill="#7b9370"/>
  <path d="M231.43 125.35c1.2-8.07 1.77-15.15 2.68-22.36.5-3.95.95-7.22.49-9.52-1-4.9-1.37-5.21-.81-9 1.08-7.39-.3-9.36-1.48-11.52-.72-1.32-3-2.59-4.3-1.36-3.11 3.88 3.77 9.45 1.18 13.34a2.19 2.19 0 00-1.28 1.53c-1.34 5.23 6.93 9.94 2.53 14.74-1.37 2.7 2.14 5.52.18 8.08-.53 1.44.29 2.88.91 4.29 1.43 3.25.29 8-.1 11.8z" style="isolation:isolate" fill="#7b9370"/>
  <path d="M237.29 138H226c-3.66-2.41-7.2-10.82 0-20h11.34c7.2 9.18 3.66 17.59 0 20z" fill="#f5987e"/>
  <path fill="#2a67b2" d="M191.2 112.58h1.01v19.48h-1.01z"/>
  <path fill="#0d2135" d="M189.462 113.668l1.008-.075 1.447 19.427-1.008.075z"/>
  <path fill="#d69d48" d="M199.27 114.007l1.007.084-1.62 19.413-1.006-.084z"/>
  <path fill="#b75a42" d="M192.174 114.749l1.001-.137 2.634 19.301-1.001.137z"/>
  <path fill="#fff" d="M197.34 114.02l1.01.02-.405 19.476-1.01-.02z"/>
  <path fill="#0d2135" d="M195.934 113.145l1.01-.015.3 19.477-1.01.016z"/>
  <path fill="#a0b4b7" d="M190 122h10v16h-10z"/>
  <path fill="#b9af9f" d="M81.93 138v90h5.61v-84h128.05v-6H81.93z"/>
  <path fill="#b9af9f" d="M126.36 138v6H250v86h6v-92H126.36z"/>
  <path d="M244 236h-.12a12.89 12.89 0 00-10.8-5.84h-48.16a12.92 12.92 0 100 25.84H244a10 10 0 000-20z" fill="#7c8f81"/>
  <path d="M150.68 233.7l-10.16 3.69-3.2-3.9-8-9.52 12.77-1.97a27.46 27.46 0 004.5 4.8z" fill="#c0d1e2"/>
  <path d="M171.06 232.78a2.6 2.6 0 00-2.36-1c-10 1.26-18.83-3.7-18.83-3.7l-3.27-1.28c-1.24 2.68.13 4.17 1.16 4.86-4.74 6.08-10.16 1.79-10.16 1.79l-.1 9a3.51 3.51 0 004.43 3.31l23.36-6.4a12 12 0 005.62-3.28 2.58 2.58 0 00.15-3.3z" fill="#56687a"/>
  <path d="M100.48 242.92l-10.76.87-2.06-4.61-4.53-9.78h12.15a27.77 27.77 0 003.08 5.82z" fill="#c0d1e2"/>
  <path d="M120.38 247.23a2.58 2.58 0 00-2-1.53c-10-1.42-17.18-8.39-17.18-8.39l-2.83-2.1c-1.87 2.23-1 4-.2 4.95-6.21 4.49-10.5-1-10.5-1l-2.2 8.58a3.45 3.45 0 003.38 4.26h24.22a12.15 12.15 0 006.29-1.65 2.5 2.5 0 001.02-3.12z" fill="#56687a"/>
  <path d="M12 150.8V200l-5.13 52H2.78L6 194v-36.6l-1.6-19.8 2.35-11.69S12 138.28 12 150.8z" fill="#e0a675"/>
  <path d="M56.35 194H11v6h39.83l2.93 32H7l-.36 4h47.53l1.22 16h3.9c-.64-11.85-2.29-45.72-2.94-58z" fill="#e0a675"/>
  <path fill="#945544" d="M12 194h42.75l-3.96-6.6L12 188v6z"/>
  <path d="M52.8 170.6H77a43.65 43.65 0 016.6-4.31 158.09 158.09 0 01-14.09-10.54c-6.88-6.09-12.31-18.15-12.31-18.15l-4.51-18c-1.23-4.96-5.64-9.6-10.69-9.6h-4.6l13.47 59.62z" fill="#b75a42" fill-rule="evenodd"/>
  <path d="M49.4 123.25a21 21 0 00-5.49-10.17 9.71 9.71 0 00-7.58-3.08H16c-2.15 0-10 12-10 12v30.31A23.53 23.53 0 0012 168l47.18-3.57z" fill="#a3503b" fill-rule="evenodd"/>
  <path d="M22.83 89.91v-.45a14.27 14.27 0 1127.48 3.93v.06c-.13.27-.24.52-.34.78a11.16 11.16 0 00-.59 5 1.62 1.62 0 01-1.56 1.83h-1.48c-.3.56-1.93 3-2.23 3.46-1.31 2-4.86 1.57-8.16 1.93C33.92 106.73 34 110 34 110H14c2.16-.91 9.57-10.62 9.34-14.8-.09-1.52-.32-3.25-.51-5.29z" fill="#e7ad82"/>
  <path fill="#69295a" d="M47.83 92.81l-3.29 3.8.99.66 3.3-3.8"/>
  <path fill="#69295a" d="M47.45 95.04l-6.13-5.54-.47.5 6.13 5.54"/>
  <path d="M51 73.36A5.52 5.52 0 0045.91 69c-.93 0-1.86.17-2.78.06-2.21-.27-4.07-2.33-6.29-2.06-1.21.15-2.25 1-3.45 1.26s-2.59-.11-3.86.14c-3.88.82-4.11 5.3-5.32 8.31-.7 1.36-2 2.42-2.31 3.91-.22 1.18.23 2.41 0 3.57a12.65 12.65 0 01-1.39 2.68c-2.53 4.84 2.63 10.35 7.7 9 1.85-.5 3.55-3.7 3.74-5.93A4 4 0 1139.77 91c7.73.47 13.76-3.23 15.3-6.69C57.13 80.39 56 74 51 73.36z" fill="#42292d"/>
  <path d="M16 144v-34c-7 0-11 3-13.25 6A14.58 14.58 0 000 124.77v22.41C0 154 5 159.6 11.13 159.6H44v-12.17z" fill="#b75a42" fill-rule="evenodd"/>
  <path d="M76.91 134h-16a1.12 1.12 0 00-1 .6l-9.55 20a1 1 0 001 1.43h16a1.11 1.11 0 001-.6l9.55-20a1 1 0 00-1-1.43z" fill="#2f2f2f" fill-rule="evenodd"/>
  <path d="M54.91 146.16a11.16 11.16 0 003.6-2.93c2.09-1.79 2.58 3.42 2.74 4.88.08 2.42-1.77 5.3-3.25 7.2-1 1.32-2.58 2.69-4.25 2.69H44v-10.5h4.69l6.31-4.24c1.74-.54.65 2.15 0 2.9zM96.19 171s-1.7 0-2.85-.05H77.07s-1.38-7.3 8.24-7c2.94.11 4.77 2.54 6.45 3.61 2.08 1.44 3.73 1.56 4.43 3.44z" fill="#e7ad82"/>
  <path d="M38.65 170c.7 7.29 2.2 13.15 5.66 16.86 9 9.67 18.48 7.58 18.48 7.58l29.84.56a6.41 6.41 0 014.57 2c6.22 6.64 26 28.58 26 28.58h22s-23-35.68-32.2-49.48c-2.3-3.44-6.21-6.12-10.4-6.12H38.65z" fill="#c7882c" fill-rule="evenodd"/>
  <path d="M22.35 185.2c6.55 7.39 19.45 9.6 19.45 9.6H55L74 232h24s-18.58-44.33-25.28-61.86A10.28 10.28 0 0062 163.6L11.88 168a56.32 56.32 0 0010.47 17.2z" fill="#d69d48" fill-rule="evenodd"/>
  <path d="M178 67a3 3 0 00-3-3H91a3 3 0 00-3 3v54a3 3 0 003 3h84a3 3 0 003-3V67z" fill="#56687a" fill-rule="evenodd"/>
  <path d="M116 134a6 6 0 004.66-1.91c1.23-1.38 1.34-5.21 1.34-5.21V124h20v2.88s.11 3.83 1.34 5.21A6 6 0 00148 134v2h-32z" fill="#38434f" fill-rule="evenodd"/>
  <path fill="#56687a" fill-rule="evenodd" d="M148 136h-32v2h32v-2z"/>
  <path fill="#fff" fill-rule="evenodd" d="M164 72H92v44h72V72z"/>
  <path fill="#0a66c2" d="M92 68h72v4H92z"/>
  <path fill="#f3f2ef" d="M164 68h10v48h-10z"/>
  <path fill="#e0eefa" d="M92 84h16v22H92z"/>
  <path fill="#9ac6ea" d="M96 84h12v2H96zM96 88h12v2H96zM96 92h12v2H96zM96 96h12v2H96z"/>
  <path fill="#e0eefa" d="M92 76h16v4H92z"/>
  <path fill="#fce2ba" d="M118 76h40v4h-40z"/>
  <path d="M156 86v24h-36V86h36m2-2h-40v28h40V84z" fill="#d0e8ff"/>
  <path d="M250.29 224.81a.52.52 0 00-.8.65c2.91 4.49-2.67 11.42-9.94 4.91-2.49-4-8-6.37-13.55-6.37-3.12 0-10 .05-14.3.08a12.56 12.56 0 01-9.53-4 7.51 7.51 0 01-2.07-6.38v-.41a6.45 6.45 0 00-2.31-5.41l-.05 2.13a3.42 3.42 0 00-2.35-2.33l.3 1.3h-.07a2.7 2.7 0 00-1.74-1.27l.27.89c-2.33-.37-4.69.26-5.79 2.57-1.15 1.62-5.67-.24-7.18-.28-2.82-.25.06 4.52.11 5.62.33 1.94 5.22 2.87 6.58 3.66 3 1.2 3.66 5.09 3.88 9.08h-.06s1.09 2.8-5.57 5.71c-1.3.57-4.41 1.53-6.16 3.29-1.56 1.55-3.28 4.72-1.88 6.08 1.11 1.06 2.56-.75 3.51-2.29a7.26 7.26 0 014.32-3.24 3.51 3.51 0 011.4-.12c8.66 1.61 12.8.75 14.66-1h.03c8.08-7.41 7.56 2.34 25.72-2.23 6.62-1.67 11.2-.69 13.62.2a.34.34 0 010-.1c10.52 1.6 12.88-6.92 8.95-10.74z" fill="#945544"/>
  <path d="M194.77 211.87h-2.11a2.78 2.78 0 00-2.37 4.13 10.49 10.49 0 006.82 4.79 13.52 13.52 0 00-.41-7.53 2.06 2.06 0 00-1.93-1.39z" fill="#6e3f33"/>
</svg>
