<svg width="1416" height="448" viewBox="0 0 1416 448" fill="none" xmlns="http://www.w3.org/2000/svg">
<g clip-path="url(#clip0_1152_1080)">
<path d="M0 29V58H291.2C549.1 58 582.6 58.2 584.7 59.5C587.5 61.4 587.6 61.9 589.5 82C590.3 91.1 592.3 113.1 594 131C595.7 148.9 597.3 166.2 597.6 169.5C597.9 172.8 598.6 180 599.1 185.5C600.4 198.6 600.4 199.1 604.5 243.8C608.4 286.1 609.6 291.9 616.7 303.9C622 312.8 633.9 323.7 643.3 328.3C656.4 334.7 660.2 335.2 695.9 334.8L727.5 334.5L735 331.6C754 324.4 768.4 309.9 774.7 291.9C777.5 283.8 778.3 277.4 783.4 221C789.4 155.8 796.5 79.4 797.6 68.3C798.1 63.8 798.9 61.5 800.5 60L802.6 58H1416V0L1106.3 0.200012C812.6 0.500012 796.2 0.599988 790.5 2.29999C765.4 9.69999 747.7 27.9 742.6 51.7C741.8 55.4 739.9 71.5 738.5 87.5C737.1 103.5 735.7 118.3 735.5 120.5C734.9 125.5 726.6 214.8 723.9 245.5C721.6 271.4 720.9 275 717.9 276.8C715.4 278.4 670.9 278.6 668 277C666.745 276.047 665.776 274.767 665.2 273.3C664.6 271.8 661.6 242.8 658.5 209C655.4 175.2 652 138.5 651 127.5C650 116.5 648 95.2 646.6 80.2C644.4 56.9 643.6 51.6 641.2 44.6C633 20.7 612.4 4.2 586.8 1C581.3 0.3 483.4 0 289.3 0H0V29Z" fill="black"/>
<path d="M189.7 134C174.8 135.8 161.1 142.2 154.1 150.6C147.4 158.7 142.6 172.4 139.9 191C138.3 202.2 138.3 249.8 139.9 260.7C144 289 152.4 303.9 168.5 311.5C179.1 316.5 184.7 317.5 201.5 317.5C217.8 317.5 226 315.8 236.3 310.2C249.8 302.9 258.4 287 261.5 263.5C263.4 249 263.7 205.2 261.9 191C259.7 172.2 254.4 158.3 245.9 148.7C236.2 137.6 212 131.3 189.7 134ZM210.7 165.2C217.8 171.7 219.5 183.8 219.4 228C219.2 271.2 217.5 281.6 209.6 287.3C205.4 290.3 196.4 290.4 192.3 287.4C188.2 284.4 185.2 277.7 183.8 268.5C182 257.2 182.1 194.4 183.8 183C185.3 173.3 188.1 166.6 191.7 164.3C197.3 160.6 206.2 161 210.7 165.2Z" fill="black"/>
<path d="M829.5 134.2C829.2 134.9 829.1 175.8 829.2 225L829.5 314.5L867.5 314.4C909.3 314.4 914.3 313.9 926.5 308.2C937.3 303.1 943.8 295.8 948.7 283.3C951.1 277.3 951.4 275.1 951.4 264C951.5 250.8 950.4 245 946.4 236.9C942.7 229.4 934.1 223.2 924 220.5L919.5 219.3L924.4 217.1C938.3 211 945.7 198.9 946.5 181C947.6 156.9 937.1 142 914.4 135.4C909.4 134 902.7 133.7 869.2 133.3C837.7 133 829.9 133.2 829.5 134.2ZM895.5 168C901 171.4 904.4 179.3 903.7 186.9C902.5 200.1 897.1 204.7 881.5 205.7L872 206.3V164.7L881.9 165.2C889.9 165.6 892.4 166.1 895.5 168ZM896.7 236.8C904.1 240.6 907 246.9 907 259.2C907 276.5 899.7 283 880.3 283H872V233.7L882.3 234.2C890.1 234.6 893.5 235.2 896.7 236.8Z" fill="black"/>
<path d="M975.3 133.7C974.3 134.1 974 153.1 974 224C974 306.7 974.1 313.8 975.7 314.4C976.6 314.8 1000.9 315 1029.7 315L1082 314.9V280H1017V239L1046.3 238.8L1075.5 238.5L1075.8 221.2L1076 204H1017V168H1079V133L1027.8 133.1C999.6 133.1 975.9 133.4 975.3 133.7Z" fill="black"/>
<path d="M1134.7 133.7C1133.9 135 1089 311.8 1089 313.5C1089 314.9 1091.6 315 1110.7 314.8L1132.3 314.5L1133.1 312C1133.5 310.6 1135.1 302.9 1136.5 294.7L1139.2 280H1160.6C1180 280 1181.9 280.2 1182.4 281.7C1182.6 282.7 1184 289.8 1185.5 297.5C1187 305.2 1188.3 312.3 1188.6 313.2C1189.1 314.7 1191.2 314.9 1211.1 314.9C1223.1 314.9 1233 314.8 1233 314.6C1233 314.1 1189.1 137.2 1188.4 134.7C1187.9 133.1 1185.7 133 1161.5 133C1147 133 1134.9 133.3 1134.7 133.7ZM1169 211.5L1175.7 246.5L1168.4 246.8C1164.4 247 1157.6 247 1153.2 246.8L1145.4 246.5L1152.1 210C1155.8 189.9 1159.2 171.9 1159.6 170L1160.3 166.5L1161.3 171.5C1161.8 174.2 1165.3 192.2 1169 211.5Z" fill="black"/>
<path d="M1249.3 133.7C1248.3 134.1 1248 153.1 1248 224C1248 307.1 1248.1 313.8 1249.7 314.4C1250.6 314.8 1259.1 315 1268.7 315L1286 314.8L1286.2 244.8L1286.5 174.9L1300.8 244.2C1308.7 282.3 1315.5 313.8 1315.9 314.3C1316.3 314.8 1323.8 314.9 1332.6 314.8L1348.5 314.5L1352.1 296.5C1354.1 286.6 1359.7 258.5 1364.4 234C1375.8 175.5 1375.3 178 1375.8 178.5C1376.1 178.7 1376.2 209.3 1376.1 246.3C1375.9 308 1376 313.8 1377.5 314.4C1379.6 315.2 1412.3 315.2 1414.4 314.4C1415.8 313.8 1416 305 1416 224C1416 143 1415.8 134.2 1414.4 133.6C1413.5 133.3 1399.8 133 1383.9 133C1361.6 133 1354.8 133.3 1354.5 134.2C1354.1 135.4 1337.5 226 1334.9 241.5C1334.54 244.314 1333.94 247.092 1333.1 249.8C1332.7 250.4 1327.5 224.6 1321.4 192.3L1310.4 133.5L1280.5 133.3C1264 133.2 1249.9 133.4 1249.3 133.7Z" fill="black"/>
<path d="M0 225.5V314L2.5 314.6C3.8 314.9 20.8 315 40.2 314.7C78.8 314.2 83.8 313.6 95.5 308.1C103.149 304.726 109.475 298.928 113.5 291.6C119 281.6 120.3 275.5 119.8 261.6C119.1 243.1 115.2 234.4 104.7 227.5C101.654 225.599 98.3994 224.055 95 222.9C90 221.5 87.6 220 90.3 220C92.4 220 98.6 216.8 101.6 214.2C106.3 210.2 111.1 202.5 113.1 195.9C114.8 190.2 115.2 187 114.8 178.2C114.5 168.7 114.1 166.7 111.3 160.8C105.8 149.2 97.4 142.8 82.2 138.9C75.4 137.2 71 137 37.3 137H0V225.5ZM63.4 170C65.6882 171.411 67.7176 173.203 69.4 175.3C72.1 178.7 72.5 180.1 72.8 186.3C73.1 192.3 72.7 194.3 70.8 197.9C66.9 205.5 61.6 207.9 48.3 208H42V167.8L51.3 168.2C56.8 168.4 61.7 169.1 63.4 170ZM67.7 239.2C74.9 244 78.4 255.8 76 267.4C74.7 273.8 71.5 278.2 66.1 281C62.3 282.9 59.1 283.3 48.3 283.1L42 283V235.8L52.8 236.1C62.6 236.5 64.1 236.8 67.7 239.2Z" fill="black"/>
<path d="M285.2 225.7L285.5 314.5H322.5V254.7C322.5 221.9 322.7 195 323 195C323.3 195 331.4 221.4 341 253.7C350.6 286 359.1 312.9 359.8 313.7C360.9 314.8 365.8 315 383.8 314.8L406.5 314.5L406.8 225.7L407 137H368V194.2C368 225.6 367.8 251.1 367.5 250.8C367.2 250.5 359.4 224.9 350.1 193.9L333.4 137.5L309.2 137.2L285 137L285.2 225.7Z" fill="black"/>
<path d="M432.2 225.7L432.5 314.5L463 314.7C479.8 314.8 497.2 314.5 501.8 314C519 312.2 533.1 305.3 540.2 295.1C544.2 289.4 548.1 278.9 550.6 267C552.9 256.4 553.5 202.3 551.4 189.5C549.7 178.7 546.7 168.4 543.3 161.6C539.9 154.8 530.7 145.9 524 142.8C512.8 137.6 507.3 137 468 137H432L432.2 225.7ZM498.5 170.6C505.8 174.4 508.1 179.6 510.1 196.3C511.6 209.6 510.7 251.9 508.6 261.7C505 278.9 500.2 283 483.8 283H474V167.8L484.3 168.2C492.1 168.4 495.4 169 498.5 170.6Z" fill="black"/>
<path d="M0 405V434H1416V376H0V405Z" fill="black"/>
</g>
<defs>
<clipPath id="clip0_1152_1080">
<rect width="1416" height="448" fill="white"/>
</clipPath>
</defs>
</svg>
